<svg xmlns="http://www.w3.org/2000/svg" width="600" height="400" viewBox="0 0 600 400"><rect width="100%" height="100%" fill="#2A2A2A"/><path fill="#E0E0E0" d="M138.555 190.555h-12.2v7.62h9.62v3.93h-9.62v7.78h12.2v4.08h-17.33v-27.47h17.33zm3.63 13.89v-3.91h9.84v3.91zm29.53-7.56-1.24 1.71q-.21.26-.41.42-.2.15-.58.15-.36 0-.7-.22t-.82-.49q-.47-.28-1.13-.5-.65-.22-1.62-.22-1.24 0-2.17.45t-1.55 1.28q-.61.84-.92 2.03-.3 1.18-.3 2.68 0 1.56.33 2.78t.96 2.04q.63.83 1.52 1.26.89.42 2.02.42 1.12 0 1.81-.27.69-.28 1.17-.61.47-.33.82-.61.36-.27.79-.27.57 0 .86.43l1.35 1.71q-.78.92-1.69 1.53-.92.62-1.89.99-.98.37-2.02.52-1.03.15-2.06.15-1.8 0-3.4-.67t-2.79-1.97q-1.2-1.29-1.89-3.16-.7-1.87-.7-4.27 0-2.14.62-3.98.62-1.83 1.81-3.17 1.2-1.34 2.97-2.1t4.06-.76q2.19 0 3.83.71 1.65.7 2.96 2.01m11.74-2.72q2.17 0 3.94.71 1.78.7 3.04 1.99 1.27 1.29 1.95 3.15.68 1.87.68 4.16 0 2.32-.68 4.19-.68 1.86-1.95 3.17-1.26 1.31-3.04 2.01-1.77.7-3.94.7-2.19 0-3.97-.7-1.79-.7-3.05-2.01t-1.96-3.17q-.69-1.87-.69-4.19 0-2.29.69-4.16.7-1.86 1.96-3.15t3.05-1.99q1.78-.71 3.97-.71m0 16.48q2.43 0 3.6-1.64 1.17-1.63 1.17-4.79 0-3.15-1.17-4.8-1.17-1.66-3.6-1.66-2.47 0-3.66 1.67-1.19 1.66-1.19 4.79 0 3.14 1.19 4.78 1.19 1.65 3.66 1.65m17.9 3.32h-4.7v-19.49h2.87q.92 0 1.2.85l.3 1.44q.52-.57 1.08-1.04t1.19-.82q.64-.34 1.37-.54t1.61-.2q1.84 0 3.03 1t1.78 2.65q.45-.97 1.14-1.66.68-.7 1.5-1.13.81-.44 1.73-.65.93-.21 1.86-.21 1.61 0 2.87.5 1.25.49 2.11 1.44.85.95 1.3 2.32.44 1.37.44 3.13v12.41h-4.69v-12.41q0-1.86-.82-2.8-.81-.94-2.39-.94-.72 0-1.34.25-.62.24-1.08.71-.47.47-.73 1.17-.27.7-.27 1.61v12.41h-4.71v-12.41q0-1.95-.79-2.85-.79-.89-2.31-.89-1.03 0-1.91.5-.88.51-1.64 1.38zm31.82 0h-4.69v-19.49h2.87q.91 0 1.2.85l.3 1.44q.51-.57 1.07-1.04t1.2-.82q.64-.34 1.37-.54t1.6-.2q1.85 0 3.03 1 1.19 1 1.78 2.65.46-.97 1.14-1.66.68-.7 1.5-1.13.82-.44 1.74-.65t1.85-.21q1.62 0 2.87.5 1.26.49 2.11 1.44.86.95 1.3 2.32.45 1.37.45 3.13v12.41h-4.69v-12.41q0-1.86-.82-2.8t-2.4-.94q-.72 0-1.34.25-.61.24-1.08.71-.46.47-.73 1.17t-.27 1.61v12.41h-4.71v-12.41q0-1.95-.79-2.85-.78-.89-2.3-.89-1.03 0-1.91.5-.89.51-1.65 1.38zm30.84-11.99h8.85q0-.91-.25-1.72-.26-.81-.77-1.41-.52-.61-1.3-.96-.79-.35-1.84-.35-2.03 0-3.2 1.15-1.17 1.16-1.49 3.29m11.97 2.83h-12.07q.12 1.5.54 2.6.41 1.09 1.1 1.8.68.71 1.62 1.06.94.36 2.08.36t1.97-.27 1.44-.59q.62-.32 1.09-.59.46-.26.9-.26.59 0 .87.43l1.35 1.71q-.78.92-1.75 1.53-.96.62-2.02.99-1.05.37-2.15.52-1.09.15-2.11.15-2.04 0-3.79-.67-1.74-.67-3.04-1.99-1.29-1.33-2.03-3.27-.74-1.95-.74-4.51 0-2 .65-3.76.64-1.75 1.85-3.06 1.21-1.3 2.94-2.06 1.74-.76 3.93-.76 1.84 0 3.4.59t2.68 1.72 1.75 2.77q.64 1.65.64 3.76 0 1.06-.23 1.43-.22.37-.87.37m8.76-9.16.28 2.21q.92-1.75 2.17-2.75t2.96-1q1.35 0 2.17.59l-.3 3.52q-.1.34-.28.48-.18.15-.48.15-.29 0-.85-.1-.56-.09-1.09-.09-.78 0-1.39.22-.61.23-1.09.66-.49.43-.86 1.04-.37.6-.69 1.38v12.01h-4.69v-19.49h2.75q.72 0 1.01.25.28.26.38.92m25.23 1.24-1.23 1.71q-.21.26-.41.42-.2.15-.58.15-.36 0-.71-.22-.34-.22-.81-.49-.48-.28-1.13-.5-.66-.22-1.63-.22-1.23 0-2.16.45t-1.55 1.28q-.62.84-.92 2.03-.31 1.18-.31 2.68 0 1.56.33 2.78.34 1.22.96 2.04.63.83 1.52 1.26.9.42 2.02.42t1.81-.27q.7-.28 1.17-.61.48-.33.83-.61.35-.27.79-.27.57 0 .85.43l1.35 1.71q-.78.92-1.69 1.53-.91.62-1.89.99t-2.02.52q-1.03.15-2.06.15-1.8 0-3.4-.67-1.59-.67-2.79-1.97-1.2-1.29-1.89-3.16t-.69-4.27q0-2.14.61-3.98.62-1.83 1.82-3.17 1.19-1.34 2.96-2.1t4.07-.76q2.18 0 3.83.71 1.64.7 2.95 2.01m6.82 5.09h8.86q0-.91-.26-1.72t-.77-1.41q-.51-.61-1.3-.96t-1.84-.35q-2.03 0-3.2 1.15-1.17 1.16-1.49 3.29m11.97 2.83h-12.06q.11 1.5.53 2.6.42 1.09 1.1 1.8t1.62 1.06q.95.36 2.09.36t1.96-.27q.83-.27 1.45-.59.61-.32 1.08-.59.46-.26.9-.26.59 0 .88.43l1.34 1.71q-.77.92-1.74 1.53-.97.62-2.03.99-1.05.37-2.14.52-1.1.15-2.12.15-2.04 0-3.78-.67-1.75-.67-3.04-1.99-1.3-1.33-2.04-3.27-.74-1.95-.74-4.51 0-2 .65-3.76.64-1.75 1.85-3.06 1.21-1.3 2.95-2.06 1.73-.76 3.92-.76 1.84 0 3.4.59t2.68 1.72 1.76 2.77q.63 1.65.63 3.76 0 1.06-.22 1.43-.23.37-.88.37m30.5-15.73-1.28 2.41q-.22.4-.48.58t-.64.18q-.4 0-.86-.29-.47-.3-1.11-.66-.65-.36-1.51-.65-.87-.3-2.05-.3-1.06 0-1.86.26t-1.34.71q-.54.46-.81 1.09-.26.64-.26 1.4 0 .97.54 1.62.54.64 1.43 1.1.9.45 2.04.81 1.14.37 2.33.77 1.2.41 2.34.95 1.14.55 2.03 1.37.9.83 1.44 2.03.54 1.19.54 2.9 0 1.86-.64 3.49-.63 1.62-1.86 2.83-1.22 1.21-2.99 1.9t-4.05.69q-1.31 0-2.58-.25-1.27-.26-2.44-.73-1.17-.48-2.2-1.14-1.02-.67-1.82-1.49l1.5-2.45q.19-.26.49-.44.31-.18.65-.18.47 0 1.03.39.55.39 1.31.86t1.77.86q1.02.39 2.44.39 2.19 0 3.39-1.03 1.19-1.04 1.19-2.97 0-1.09-.54-1.77-.54-.69-1.43-1.15-.9-.47-2.04-.79t-2.31-.7q-1.18-.38-2.32-.92-1.14-.53-2.03-1.38-.9-.86-1.44-2.14t-.54-3.16q0-1.5.6-2.93.6-1.42 1.74-2.53 1.14-1.1 2.81-1.76 1.67-.67 3.84-.67 2.43 0 4.48.76t3.5 2.13m12.82 5.09q2.17 0 3.94.71 1.78.7 3.04 1.99 1.27 1.29 1.95 3.15.69 1.87.69 4.16 0 2.32-.69 4.19-.68 1.86-1.95 3.17-1.26 1.31-3.04 2.01-1.77.7-3.94.7-2.18 0-3.97-.7t-3.05-2.01-1.96-3.17q-.69-1.87-.69-4.19 0-2.29.69-4.16.7-1.86 1.96-3.15t3.05-1.99q1.79-.71 3.97-.71m0 16.48q2.43 0 3.6-1.64 1.17-1.63 1.17-4.79 0-3.15-1.17-4.8-1.17-1.66-3.6-1.66-2.47 0-3.66 1.67-1.18 1.66-1.18 4.79 0 3.14 1.18 4.78 1.19 1.65 3.66 1.65m13.26-24.91h4.7v28.23h-4.7zm21.49 8.74h4.7v19.49h-2.87q-.93 0-1.18-.85l-.32-1.56q-1.2 1.21-2.65 1.96-1.44.75-3.4.75-1.59 0-2.82-.54-1.22-.54-2.06-1.53-.84-.98-1.26-2.34-.43-1.36-.43-3v-12.38h4.69v12.38q0 1.79.83 2.77t2.48.98q1.21 0 2.28-.54 1.06-.55 2.01-1.5zm15.83 19.79q-2.55 0-3.91-1.43-1.35-1.43-1.35-3.96v-10.89h-2q-.38 0-.64-.25-.27-.24-.27-.74v-1.86l3.13-.51.99-5.32q.1-.38.36-.59.27-.21.69-.21h2.43v6.14h5.21v3.34h-5.21v10.56q0 .92.45 1.43.44.51 1.22.51.44 0 .73-.1.3-.11.52-.22.21-.11.39-.22.17-.1.34-.1.21 0 .34.1.13.11.28.31l1.41 2.28q-1.03.86-2.36 1.3-1.33.43-2.75.43m7.79-19.79h4.71v19.49h-4.71zm5.36-5.69q0 .61-.25 1.14-.25.54-.65.94-.41.4-.96.63-.56.24-1.18.24-.61 0-1.15-.24-.54-.23-.94-.63t-.64-.94q-.24-.53-.24-1.14 0-.62.24-1.17t.64-.95.94-.64 1.15-.24q.62 0 1.18.24.55.24.96.64.4.4.65.95t.25 1.17m12.77 5.38q2.16 0 3.94.71 1.77.7 3.04 1.99 1.26 1.29 1.95 3.15.68 1.87.68 4.16 0 2.32-.68 4.19-.69 1.86-1.95 3.17-1.27 1.31-3.04 2.01-1.78.7-3.94.7-2.19 0-3.98-.7-1.78-.7-3.05-2.01-1.26-1.31-1.95-3.17-.7-1.87-.7-4.19 0-2.29.7-4.16.69-1.86 1.95-3.15 1.27-1.29 3.05-1.99 1.79-.71 3.98-.71m0 16.48q2.43 0 3.6-1.64 1.16-1.63 1.16-4.79 0-3.15-1.16-4.8-1.17-1.66-3.6-1.66-2.47 0-3.66 1.67-1.19 1.66-1.19 4.79 0 3.14 1.19 4.78 1.19 1.65 3.66 1.65m17.27-15.32.32 1.54q.59-.59 1.24-1.09.66-.51 1.39-.86t1.57-.55q.83-.2 1.82-.2 1.6 0 2.83.54 1.24.55 2.06 1.52.83.98 1.26 2.34t.43 2.99v12.41h-4.7v-12.41q0-1.78-.81-2.76-.82-.98-2.49-.98-1.22 0-2.28.55-1.07.55-2.02 1.5v14.1h-4.69v-19.49h2.87q.91 0 1.2.85"/></svg>